<svg width="40" height="40" viewBox="0 0 40 40" fill="none" xmlns="http://www.w3.org/2000/svg">
<circle cx="20" cy="20" r="19" stroke="#009BAC" stroke-width="2"/>
<path d="M19.6991 23.3631C20.0897 23.7536 20.7228 23.7536 21.1134 23.3631L27.4773 16.9991C27.8678 16.6086 27.8678 15.9754 27.4773 15.5849C27.0868 15.1944 26.4536 15.1944 26.0631 15.5849L20.4062 21.2417L14.7494 15.5849C14.3589 15.1944 13.7257 15.1944 13.3352 15.5849C12.9447 15.9754 12.9447 16.6086 13.3352 16.9991L19.6991 23.3631ZM19.4062 8.84448L19.4062 22.656L21.4062 22.656L21.4062 8.84448L19.4062 8.84448Z" fill="#009BAC"/>
<path d="M9 19V27H31V19" stroke="#009BAC" stroke-width="2"/>
</svg>
