<svg width="24" height="21" viewBox="0 0 24 21" fill="none" xmlns="http://www.w3.org/2000/svg">
<mask id="mask0_742_2065" style="mask-type:luminance" maskUnits="userSpaceOnUse" x="0" y="0" width="24" height="21">
<path d="M23.69 0H0V20.95H23.69V0Z" fill="white"/>
</mask>
<g mask="url(#mask0_742_2065)">
<path d="M23.39 2.03984C23.39 2.03984 23.34 2.03984 23.33 2.03984L20.29 2.75984V0.309844C20.29 0.229844 20.26 0.149844 20.21 0.0898438C20.16 0.0298438 20.08 -0.00015625 20.01 -0.00015625H20C20 -0.00015625 19.9 0.00984375 19.86 0.0298437L11.85 4.36984H11.83L3.83 0.0298437C3.77 -0.000156252 3.71 -0.0101562 3.64 -0.00015625C3.5 0.0298437 3.39 0.149844 3.4 0.289844V2.74984H3.36L0.35 2.03984C0.34 2.03984 0.32 2.03984 0.3 2.03984C0.29 2.03984 0.27 2.03984 0.26 2.03984C0.11 2.06984 0 2.18984 0 2.33984V17.9498C0 18.0898 0.09 18.1998 0.23 18.2298L11.78 20.9498C11.78 20.9498 11.87 20.9598 11.91 20.9498L23.46 18.2298C23.6 18.1998 23.69 18.0798 23.69 17.9398V2.33984C23.69 2.17984 23.56 2.03984 23.4 2.02984M3.99 0.789844L4.04 0.819844L10.85 4.50984L3.99 2.89984V0.789844ZM11.55 20.2798H11.51L0.59 17.7098V2.69984H0.63L11.55 5.27984V20.2698V20.2798ZM19.7 0.789844V2.89984H19.67L12.83 4.50984L19.69 0.789844H19.7ZM23.1 17.7098H23.07L12.14 20.2798V5.27984H12.17L23.1 2.69984V17.6998V17.7098Z" fill="#009BAC"/>
</g>
</svg>
