<svg width="25" height="22" viewBox="0 0 25 22" fill="none" xmlns="http://www.w3.org/2000/svg">
<mask id="mask0_742_2073" style="mask-type:luminance" maskUnits="userSpaceOnUse" x="0" y="0" width="25" height="22">
<path d="M25 0H0V22H25V0Z" fill="white"/>
</mask>
<g mask="url(#mask0_742_2073)">
<path d="M21.8925 21.4314H3.08496V19.7482C3.08496 18.7762 3.86765 17.9702 4.81148 17.9702H20.166C21.1098 17.9702 21.8925 18.7762 21.8925 19.7482V21.4314ZM3.131 21.384H21.8695V19.7482C21.8695 18.8 21.1098 18.0176 20.189 18.0176H4.81148C3.89067 18.0176 3.131 18.8 3.131 19.7482V21.384Z" fill="#009BAC"/>
<path d="M20.4884 17.4248H20.4424V13.0153C20.4424 8.51099 16.8743 4.83643 12.5004 4.83643C8.12657 4.83643 4.55843 8.51099 4.55843 13.0153V17.4248H4.51239C3.38439 17.5907 2.55566 18.5864 2.55566 19.7481V21.7157C2.55566 21.7157 2.57868 21.858 2.64775 21.9291C2.71681 22.0002 2.76285 22.0239 2.85493 22.0239H22.1919C22.3531 22.0239 22.4682 21.8817 22.4682 21.7394V19.7718C22.4682 18.6101 21.6164 17.6144 20.5115 17.4485M5.13393 13.039C5.13393 11.0002 5.8936 9.10367 7.29784 7.65755C8.70207 6.21143 10.5437 5.4291 12.5234 5.4291C16.598 5.4291 19.8899 8.84289 19.8899 13.0153V17.4011H5.11091V13.0153L5.13393 13.039ZM21.8927 21.4313H3.10815V19.7718C3.10815 18.7998 3.86782 18.0175 4.81165 18.0175H20.1662C21.11 18.0175 21.8697 18.7998 21.8697 19.7718V21.4313H21.8927Z" fill="#009BAC"/>
<path d="M11.557 7.30176C9.1399 7.30176 7.16016 9.34055 7.16016 11.8298C7.16016 11.9957 7.29828 12.1143 7.4364 12.1143C7.57452 12.1143 7.71264 11.972 7.71264 11.8298C7.71264 9.67245 9.41614 7.89443 11.534 7.89443C11.6951 7.89443 11.8102 7.75219 11.8102 7.60995C11.8102 7.46771 11.6721 7.32546 11.534 7.32546" fill="#009BAC"/>
<path d="M2.04922 11.4033L0.322701 11.1899H0.299681C0.161559 11.1899 0.0234375 11.3085 0.0234375 11.4507C0.0234375 11.5218 0.0234375 11.593 0.0924983 11.6641C0.138539 11.7352 0.2076 11.7589 0.27666 11.7826L2.00318 11.996C2.00318 11.996 2.18734 11.996 2.23338 11.9249C2.27942 11.8774 2.32546 11.7826 2.32546 11.7115C2.32546 11.5693 2.21036 11.427 2.07224 11.427" fill="#009BAC"/>
<path d="M3.61445 7.06509C3.61445 7.06509 3.72955 7.11251 3.77559 7.11251C3.93673 7.11251 4.05183 6.97027 4.05183 6.82802C4.05183 6.7332 4.00579 6.63837 3.91371 6.59096L2.48646 5.59527C2.48646 5.59527 2.37135 5.54785 2.32531 5.54785C2.23323 5.54785 2.14115 5.59527 2.09511 5.66639C2.04907 5.73751 2.02605 5.80863 2.04907 5.87975C2.04907 5.95087 2.09511 6.02199 2.16417 6.0694L3.59143 7.0888L3.61445 7.06509Z" fill="#009BAC"/>
<path d="M7.27438 3.48503C7.27438 3.48503 7.4125 3.65098 7.5276 3.65098C7.57364 3.65098 7.61968 3.65098 7.66572 3.60357C7.73478 3.57986 7.78082 3.50874 7.80384 3.43762C7.80384 3.3665 7.80384 3.27167 7.80384 3.22426L6.99814 1.63589C6.99814 1.63589 6.90605 1.51736 6.83699 1.49365C6.81397 1.49365 6.79095 1.49365 6.74491 1.49365C6.69887 1.49365 6.65283 1.49365 6.60679 1.54107C6.46867 1.61219 6.42263 1.80184 6.49169 1.94408L7.2974 3.53245L7.27438 3.48503Z" fill="#009BAC"/>
<path d="M12.5009 2.37091C12.662 2.37091 12.7771 2.22867 12.7771 2.08643V0.308409C12.7771 0.14246 12.662 0.0239258 12.5009 0.0239258C12.3397 0.0239258 12.2246 0.166167 12.2246 0.308409V2.08643C12.2246 2.25237 12.3627 2.37091 12.5009 2.37091Z" fill="#009BAC"/>
<path d="M17.3115 3.62741C17.3115 3.62741 17.4035 3.67482 17.4496 3.67482C17.5647 3.67482 17.6568 3.6037 17.7028 3.50887L18.5085 1.92051C18.5085 1.92051 18.5545 1.77827 18.5085 1.68344C18.5085 1.61232 18.4394 1.5412 18.3704 1.51749C18.3013 1.47008 18.2323 1.47008 18.1402 1.51749C18.0711 1.51749 18.0021 1.58861 17.979 1.65974L17.1733 3.2481C17.1043 3.39034 17.1503 3.57999 17.2884 3.65111" fill="#009BAC"/>
<path d="M21.1556 7.11251C21.1556 7.11251 21.3167 7.11251 21.3627 7.06509L22.79 6.0694C22.79 6.0694 22.9051 5.95087 22.9051 5.87975C22.9051 5.80863 22.9051 5.7138 22.8591 5.66639C22.813 5.59527 22.744 5.54785 22.6749 5.54785C22.6058 5.54785 22.5368 5.54785 22.4677 5.57156H22.4447L21.0174 6.56725C21.0174 6.56725 20.9023 6.68578 20.9023 6.7569C20.9023 6.82802 20.9023 6.92285 20.9484 6.97027C20.9944 7.04139 21.0635 7.0888 21.1325 7.0888" fill="#009BAC"/>
<path d="M24.7016 11.1899C24.7016 11.1899 24.6785 11.1899 24.6555 11.1899L22.929 11.4033C22.7679 11.4033 22.6528 11.5693 22.6758 11.7352C22.6758 11.8774 22.8139 11.996 22.952 11.996C22.952 11.996 22.952 11.996 22.975 11.996L24.7016 11.7826C24.7016 11.7826 24.8397 11.7352 24.8857 11.6641C24.9318 11.593 24.9548 11.5218 24.9548 11.4507C24.9548 11.3085 24.8167 11.1899 24.6785 11.1899" fill="#009BAC"/>
</g>
</svg>
