<svg width="33" height="26" viewBox="0 0 33 26" fill="none" xmlns="http://www.w3.org/2000/svg">
<mask id="mask0_742_2050" style="mask-type:luminance" maskUnits="userSpaceOnUse" x="0" y="0" width="33" height="26">
<path d="M33 0H0V25.894H33V0Z" fill="white"/>
</mask>
<g mask="url(#mask0_742_2050)">
<path d="M5.75057 12.5048V22.8672H0.702515V12.5048H5.75057ZM12.1787 14.018C13.4861 14.018 14.6482 14.5264 15.4956 15.3617C15.7014 15.5675 15.8951 15.7975 16.0646 16.0396C16.1493 16.1607 16.222 16.2938 16.2946 16.4149C16.3793 16.5723 16.4399 16.6691 16.4883 16.7781L16.6335 17.117H22.3595C23.0374 17.117 23.558 17.6376 23.558 18.2913C23.558 18.7755 23.2674 19.175 22.8559 19.3566H22.8195C22.6743 19.4292 22.529 19.4655 22.3595 19.4655H14.5151V20.5913H22.3595C22.5895 20.5913 22.8074 20.5429 23.0132 20.4824C23.0859 20.4824 23.1585 20.4582 23.2311 20.4219L31.0998 16.7781C31.0998 16.7781 31.2209 16.7417 31.3903 16.7417C31.4388 16.7417 31.4872 16.7417 31.5356 16.7417C31.7777 16.7781 32.0077 16.8386 32.2135 17.3349C32.3951 17.7707 32.2377 18.267 31.8019 18.5092L31.5356 18.6544L20.58 24.6104C20.58 24.6104 20.5437 24.6346 20.5316 24.6346C20.011 24.9857 19.2847 25.1673 18.5826 25.1673C18.292 25.1673 18.0015 25.131 17.7231 25.0704L6.86429 21.3903V14.0059H12.1666M6.4527 11.7905H-0.0117188V23.5693H6.4527V22.0077L6.64639 22.0682L17.5052 25.7483L17.6141 25.7847H17.6504C17.9531 25.8573 18.2678 25.8815 18.5947 25.8815C19.4663 25.8815 20.3137 25.6394 20.9432 25.2278L31.8867 19.2839L32.1651 19.1266C32.9035 18.7029 33.2062 17.8312 32.8793 17.0565C32.5404 16.2575 32.044 16.088 31.6446 16.0396C31.5598 16.0396 31.4751 16.0275 31.4024 16.0275C31.2814 16.0275 31.1482 16.0396 31.0272 16.0638H30.9545L30.8093 16.1243L23.9696 19.296C24.1633 19.0055 24.2722 18.6544 24.2722 18.2792C24.2722 17.226 23.4369 16.4028 22.3716 16.4028H17.1178C17.0815 16.318 17.033 16.2454 16.9967 16.1728L16.9362 16.0638C16.8515 15.9064 16.7667 15.7612 16.6699 15.628C16.4762 15.3496 16.2583 15.0833 16.0162 14.8533C14.9993 13.8606 13.6435 13.3158 12.2029 13.3158H6.48902V11.8026L6.4527 11.7905Z" fill="#009BAC"/>
<path d="M29.151 0.714233C29.3205 2.23954 29.7805 7.61445 25.9188 11.234C25.0714 12.033 23.9819 12.4204 22.9045 12.4204C22.0692 12.4204 21.2218 12.1904 20.4833 11.7183C21.5123 11.2461 22.5171 10.3503 23.4008 9.50293C24.4903 8.44974 25.3256 7.46919 25.3256 7.46919C25.5314 7.22707 25.4951 6.87601 25.253 6.67021C25.144 6.58547 25.023 6.53705 24.8898 6.53705C24.7324 6.53705 24.575 6.60968 24.454 6.74285C24.454 6.74285 23.655 7.68709 22.6139 8.69186C21.5728 9.69662 20.2291 10.7135 19.5028 10.883C17.8806 9.05503 17.9896 6.30704 19.7449 4.64857C21.4518 3.05062 23.2555 2.84483 25.1077 2.5664C26.5483 2.3485 27.9525 1.81585 29.151 0.714233ZM29.151 0C28.9694 0 28.7999 0.0605282 28.6668 0.181585C27.6862 1.08951 26.4877 1.63426 24.9987 1.86427L24.7445 1.90059C22.9287 2.16691 21.0402 2.45745 19.2607 4.12803C17.2148 6.05282 17.0816 9.2245 18.9701 11.3551C19.1033 11.5125 19.297 11.5972 19.5028 11.5972C19.5391 11.5972 19.5875 11.5972 19.6238 11.5972C19.6359 11.5972 19.6601 11.5972 19.6723 11.5972C19.7207 11.5972 19.7691 11.573 19.8175 11.5609C19.8054 11.6093 19.7933 11.6577 19.7933 11.7062C19.7812 11.9604 19.9023 12.2146 20.1202 12.3478C20.9555 12.8804 21.9239 13.1588 22.9166 13.1588C24.224 13.1588 25.4709 12.6625 26.4151 11.7788C30.1194 8.30447 30.1679 3.31695 29.8652 0.665811C29.841 0.399486 29.6594 0.169479 29.4052 0.0847395C29.3205 0.0605282 29.2357 0.0363169 29.1631 0.0363169" fill="#009BAC"/>
<path d="M19.1514 11.0283C19.1514 11.0283 19.8535 11.8999 20.7614 12.2752L19.1514 11.0283Z" fill="#009BAC"/>
<path d="M19.1514 11.0283C19.1514 11.0283 19.8535 11.8999 20.7614 12.2752" stroke="#009BAC" stroke-width="0.58" stroke-linecap="round" stroke-linejoin="round"/>
</g>
</svg>
